<?xml version="1.0" encoding="UTF-8"?>
<!DOCTYPE svg PUBLIC "-//W3C//DTD SVG 1.1//EN" "http://www.w3.org/Graphics/SVG/1.1/DTD/svg11.dtd">
<svg xmlns="http://www.w3.org/2000/svg" version="1.1" width="512px" height="512px" style="shape-rendering:geometricPrecision; text-rendering:geometricPrecision; image-rendering:optimizeQuality; fill-rule:evenodd; clip-rule:evenodd" xmlns:xlink="http://www.w3.org/1999/xlink">
<g><path style="opacity:0.994" fill="#0a5077" d="M 383.5,172.5 C 381.535,170.512 379.202,169.012 376.5,168C 336.913,151.804 297.247,135.804 257.5,120C 251.462,118.869 248.129,121.369 247.5,127.5C 247.556,130.111 248.556,132.278 250.5,134C 288.256,149.553 325.922,165.053 363.5,180.5C 327.501,194.833 291.501,209.166 255.5,223.5C 218.001,208.89 180.668,193.89 143.5,178.5C 106.669,164.165 70.0024,149.332 33.5,134C 31.0577,129.948 30.891,125.781 33,121.5C 99.7357,93.809 166.569,66.309 233.5,39C 240.615,35.795 247.949,33.295 255.5,31.5C 264.675,34.0836 273.675,37.2503 282.5,41C 347.845,67.447 413.012,94.2804 478,121.5C 480.109,125.781 479.942,129.948 477.5,134C 446.259,147.122 414.926,159.956 383.5,172.5 Z"/></g>
<g><path style="opacity:1" fill="#009fc7" d="M 383.5,172.5 C 383.5,189.5 383.5,206.5 383.5,223.5C 378.167,223.5 372.833,223.5 367.5,223.5C 367.5,211.167 367.5,198.833 367.5,186.5C 368.031,183.112 366.697,181.112 363.5,180.5C 325.922,165.053 288.256,149.553 250.5,134C 248.556,132.278 247.556,130.111 247.5,127.5C 248.129,121.369 251.462,118.869 257.5,120C 297.247,135.804 336.913,151.804 376.5,168C 379.202,169.012 381.535,170.512 383.5,172.5 Z"/></g>
<g><path style="opacity:1" fill="#00153d" d="M 143.5,178.5 C 180.668,193.89 218.001,208.89 255.5,223.5C 291.501,209.166 327.501,194.833 363.5,180.5C 366.697,181.112 368.031,183.112 367.5,186.5C 330.332,201.89 292.999,216.89 255.5,231.5C 218.001,216.89 180.668,201.89 143.5,186.5C 143.5,183.833 143.5,181.167 143.5,178.5 Z"/></g>
<g><path style="opacity:1" fill="#00325a" d="M 143.5,186.5 C 180.668,201.89 218.001,216.89 255.5,231.5C 292.999,216.89 330.332,201.89 367.5,186.5C 367.5,198.833 367.5,211.167 367.5,223.5C 367.5,229.167 367.5,234.833 367.5,240.5C 353.345,247.909 348.012,259.575 351.5,275.5C 343.967,281.739 335.301,285.573 325.5,287C 278.5,287.667 231.5,287.667 184.5,287C 177.294,285.895 170.627,283.395 164.5,279.5C 161.526,276.862 158.526,274.195 155.5,271.5C 151.652,266.467 148.319,261.134 145.5,255.5C 145.005,253.518 144.505,251.518 144,249.5C 143.5,228.503 143.333,207.503 143.5,186.5 Z"/></g>
<g><path style="opacity:1" fill="#c80a4f" d="M 367.5,223.5 C 372.833,223.5 378.167,223.5 383.5,223.5C 383.5,229.167 383.5,234.833 383.5,240.5C 378.153,239.225 372.82,239.225 367.5,240.5C 367.5,234.833 367.5,229.167 367.5,223.5 Z"/></g>
<g><path style="opacity:0.998" fill="#f9b301" d="M 383.5,240.5 C 390.833,243.167 395.833,248.167 398.5,255.5C 399.4,260.772 399.733,266.105 399.5,271.5C 399.5,274.167 399.5,276.833 399.5,279.5C 399.666,285.842 399.5,292.175 399,298.5C 397.975,300.687 396.475,302.354 394.5,303.5C 381.833,303.5 369.167,303.5 356.5,303.5C 354.525,302.354 353.025,300.687 352,298.5C 351.5,290.841 351.334,283.174 351.5,275.5C 348.012,259.575 353.345,247.909 367.5,240.5C 372.82,239.225 378.153,239.225 383.5,240.5 Z"/></g>
<g><path style="opacity:0.994" fill="#c70a50" d="M 145.5,255.5 C 148.319,261.134 151.652,266.467 155.5,271.5C 138.167,271.5 120.833,271.5 103.5,271.5C 96.2741,270.748 93.7741,266.748 96,259.5C 96.5,257.667 97.6667,256.5 99.5,256C 114.83,255.5 130.163,255.333 145.5,255.5 Z"/></g>
<g><path style="opacity:0.995" fill="#c80a50" d="M 398.5,255.5 C 406.84,255.334 415.173,255.5 423.5,256C 433.31,258.646 440.477,264.48 445,273.5C 452.025,295.774 444.858,311.107 423.5,319.5C 316.167,319.5 208.833,319.5 101.5,319.5C 97.105,318.734 95.105,316.067 95.5,311.5C 95.1756,305.824 97.8422,303.158 103.5,303.5C 187.833,303.5 272.167,303.5 356.5,303.5C 369.167,303.5 381.833,303.5 394.5,303.5C 403.915,303.917 413.248,303.417 422.5,302C 427.291,299.566 429.958,295.733 430.5,290.5C 432.387,282.808 429.72,276.975 422.5,273C 414.92,271.604 407.253,271.104 399.5,271.5C 399.733,266.105 399.4,260.772 398.5,255.5 Z"/></g>
<g><path style="opacity:1" fill="#d0d1d1" d="M 103.5,271.5 C 120.833,271.5 138.167,271.5 155.5,271.5C 158.526,274.195 161.526,276.862 164.5,279.5C 144.167,279.5 123.833,279.5 103.5,279.5C 103.5,276.833 103.5,274.167 103.5,271.5 Z"/></g>
<g><path style="opacity:1" fill="#d2cfd0" d="M 399.5,271.5 C 407.253,271.104 414.92,271.604 422.5,273C 429.72,276.975 432.387,282.808 430.5,290.5C 429.137,286.298 426.47,283.131 422.5,281C 414.92,279.604 407.253,279.104 399.5,279.5C 399.5,276.833 399.5,274.167 399.5,271.5 Z"/></g>
<g><path style="opacity:1" fill="#efefef" d="M 351.5,275.5 C 351.334,283.174 351.5,290.841 352,298.5C 353.025,300.687 354.525,302.354 356.5,303.5C 272.167,303.5 187.833,303.5 103.5,303.5C 103.5,295.5 103.5,287.5 103.5,279.5C 123.833,279.5 144.167,279.5 164.5,279.5C 170.627,283.395 177.294,285.895 184.5,287C 231.5,287.667 278.5,287.667 325.5,287C 335.301,285.573 343.967,281.739 351.5,275.5 Z"/></g>
<g><path style="opacity:1" fill="#efeeef" d="M 399.5,279.5 C 407.253,279.104 414.92,279.604 422.5,281C 426.47,283.131 429.137,286.298 430.5,290.5C 429.958,295.733 427.291,299.566 422.5,302C 413.248,303.417 403.915,303.917 394.5,303.5C 396.475,302.354 397.975,300.687 399,298.5C 399.5,292.175 399.666,285.842 399.5,279.5 Z"/></g>
<g><path style="opacity:0.994" fill="#01a0c8" d="M 101.5,319.5 C 208.833,319.5 316.167,319.5 423.5,319.5C 430.947,319.071 438.281,319.571 445.5,321C 448.167,325.333 448.167,329.667 445.5,334C 443.655,335.128 441.655,335.628 439.5,335.5C 328.499,335.333 217.499,335.5 106.5,336C 87.8229,340.804 79.1562,352.637 80.5,371.5C 82.4476,386.949 91.1143,396.116 106.5,399C 113.492,399.5 120.492,399.666 127.5,399.5C 127.335,402.85 127.502,406.183 128,409.5C 128.599,412.254 130.099,414.254 132.5,415.5C 122.167,415.5 111.833,415.5 101.5,415.5C 71.6401,405.468 59.4734,384.802 65,353.5C 71.2844,335.711 83.451,324.378 101.5,319.5 Z"/></g>
<g><path style="opacity:1" fill="#d1d1d2" d="M 439.5,335.5 C 439.5,338.167 439.5,340.833 439.5,343.5C 327.833,343.333 216.166,343.5 104.5,344C 90.1957,347.796 82.1957,356.963 80.5,371.5C 79.1562,352.637 87.8229,340.804 106.5,336C 217.499,335.5 328.499,335.333 439.5,335.5 Z"/></g>
<g><path style="opacity:1" fill="#efefef" d="M 439.5,343.5 C 439.5,362.167 439.5,380.833 439.5,399.5C 359.5,399.5 279.5,399.5 199.5,399.5C 199.667,385.163 199.5,370.829 199,356.5C 197.563,353.292 195.063,351.625 191.5,351.5C 170.167,351.5 148.833,351.5 127.5,351.5C 127.5,367.5 127.5,383.5 127.5,399.5C 120.492,399.666 113.492,399.5 106.5,399C 91.1143,396.116 82.4476,386.949 80.5,371.5C 82.1957,356.963 90.1957,347.796 104.5,344C 216.166,343.5 327.833,343.333 439.5,343.5 Z"/></g>
<g><path style="opacity:1" fill="#f9b301" d="M 191.5,351.5 C 191.5,367.5 191.5,383.5 191.5,399.5C 191.79,403.936 191.29,408.27 190,412.5C 188.591,413.781 187.091,414.781 185.5,415.5C 183.833,415.5 182.167,415.5 180.5,415.5C 173.737,410.609 166.737,405.942 159.5,401.5C 152.263,405.942 145.263,410.609 138.5,415.5C 136.5,415.5 134.5,415.5 132.5,415.5C 130.099,414.254 128.599,412.254 128,409.5C 127.502,406.183 127.335,402.85 127.5,399.5C 127.5,383.5 127.5,367.5 127.5,351.5C 148.833,351.5 170.167,351.5 191.5,351.5 Z"/></g>
<g><path style="opacity:1" fill="#d2d2d2" d="M 191.5,351.5 C 195.063,351.625 197.563,353.292 199,356.5C 199.5,370.829 199.667,385.163 199.5,399.5C 196.833,399.5 194.167,399.5 191.5,399.5C 191.5,383.5 191.5,367.5 191.5,351.5 Z"/></g>
<g><path style="opacity:1" fill="#0983a9" d="M 191.5,399.5 C 194.167,399.5 196.833,399.5 199.5,399.5C 199.79,403.936 199.29,408.27 198,412.5C 196.591,413.781 195.091,414.781 193.5,415.5C 190.833,415.5 188.167,415.5 185.5,415.5C 187.091,414.781 188.591,413.781 190,412.5C 191.29,408.27 191.79,403.936 191.5,399.5 Z"/></g>
<g><path style="opacity:0.998" fill="#00a0c8" d="M 199.5,399.5 C 279.5,399.5 359.5,399.5 439.5,399.5C 442.961,399.146 445.461,400.479 447,403.5C 447.817,406.964 447.483,410.298 446,413.5C 445.25,414.126 444.416,414.626 443.5,415C 436.842,415.5 430.175,415.666 423.5,415.5C 346.833,415.5 270.167,415.5 193.5,415.5C 195.091,414.781 196.591,413.781 198,412.5C 199.29,408.27 199.79,403.936 199.5,399.5 Z"/></g>
<g><path style="opacity:1" fill="#0c98be" d="M 180.5,415.5 C 166.5,415.5 152.5,415.5 138.5,415.5C 145.263,410.609 152.263,405.942 159.5,401.5C 166.737,405.942 173.737,410.609 180.5,415.5 Z"/></g>
<g><path style="opacity:0.996" fill="#0a4f77" d="M 101.5,415.5 C 111.833,415.5 122.167,415.5 132.5,415.5C 134.5,415.5 136.5,415.5 138.5,415.5C 152.5,415.5 166.5,415.5 180.5,415.5C 182.167,415.5 183.833,415.5 185.5,415.5C 188.167,415.5 190.833,415.5 193.5,415.5C 270.167,415.5 346.833,415.5 423.5,415.5C 444.858,423.893 452.025,439.226 445,461.5C 440.477,470.52 433.31,476.354 423.5,479C 315.5,479.667 207.5,479.667 99.5,479C 97.6667,478.5 96.5,477.333 96,475.5C 93.7741,468.252 96.2741,464.252 103.5,463.5C 208.834,463.667 314.167,463.5 419.5,463C 425.426,461.243 429.092,457.409 430.5,451.5C 432.77,441.889 429.103,435.389 419.5,432C 314.167,431.5 208.834,431.333 103.5,431.5C 96.2741,430.748 93.7741,426.748 96,419.5C 97.0183,417.072 98.8517,415.738 101.5,415.5 Z"/></g>
<g><path style="opacity:1" fill="#d1d1d1" d="M 103.5,431.5 C 208.834,431.333 314.167,431.5 419.5,432C 429.103,435.389 432.77,441.889 430.5,451.5C 429.092,445.591 425.426,441.757 419.5,440C 314.167,439.5 208.834,439.333 103.5,439.5C 103.5,436.833 103.5,434.167 103.5,431.5 Z"/></g>
<g><path style="opacity:1" fill="#efefef" d="M 103.5,439.5 C 208.834,439.333 314.167,439.5 419.5,440C 425.426,441.757 429.092,445.591 430.5,451.5C 429.092,457.409 425.426,461.243 419.5,463C 314.167,463.5 208.834,463.667 103.5,463.5C 103.5,455.5 103.5,447.5 103.5,439.5 Z"/></g>
</svg>
